<svg width="616" height="574" viewBox="0 0 616 574" fill="none" xmlns="http://www.w3.org/2000/svg">
<path d="M150.8 343.5C158.7 328.4 164.6 317.1 170.5 305.7C211.6 227.1 252.6 148.5 293.9 70C298.2 61.8 303.1 53.7 308.8 46.4C333.4 15.2 371.6 15 395.2 47.1C408.4 65 419.2 84.9 429.7 104.7C485.3 209.4 540.6 314.2 595.6 419.2C610.1 446.8 619.7 475.8 614 508C608.1 541.2 579.7 569.4 553.3 570.4C561.7 552.7 573.1 534.3 579.4 514.4C588.9 484.1 579.1 455.3 565.1 428.2C529.7 359.8 494.1 291.5 458.1 223.5C431.9 174 404.7 125 378.4 75.6C372.3 64.2 364.3 57.2 351.1 57.3C338.2 57.3 331 65.2 325.4 75.8C286.1 150.6 246.3 225 207.6 300.1C199.1 316.6 189.9 330.1 170.8 334.7C165.2 336 160.1 339.3 150.7 343.5H150.8Z" fill="#2765FF"/>
<path d="M0.800049 517.9C23.1 534.3 47.7 542 75.2 541.6C103 541.2 126.4 530.7 148.9 515.1C176.8 495.8 204.2 474.4 235 461C297.3 433.9 358.2 444.2 415.1 480.2C426.9 487.7 438 496.3 449.2 504.7C463 514.9 476.7 515.7 487.5 506.5C497.6 497.9 499.6 484.3 491.8 469.5C444.2 379.1 397.3 288.4 348 198.9C336.5 177.9 336.6 162.4 352.5 145C354.2 147.2 356.4 149.3 357.8 151.9C410.9 252.5 464.2 353.1 516.7 454.1C522.9 466.1 527.9 480.7 527.4 493.8C525.8 533.9 484 556.6 446 538.8C434.8 533.5 424.7 525.4 414.7 517.8C341.1 462 263.9 463.2 191.9 521.3C181 530.1 170.4 539.3 159.1 547.5C128.5 569.4 94.6001 579.1 57.3 571.3C28.2 565.2 9.60005 546.7 0.800049 517.9Z" fill="#2765FF"/>
<path d="M400.2 411.2C302.2 374.1 217.7 393.9 139.9 453.2C129.1 461.4 118.5 469.9 107.3 477.4C86.5001 491.2 58.3 491 40 477.5C22.6 464.7 14.5 439.8 21 415.7C23.9 405 28.1001 394.4 33.3001 384.6C87.5001 281.8 141.3 178.8 196.9 76.8C208.7 55.1 226.7 36.6 243.2 17.8C249.3 10.9 259.3 7.40002 270 0.900024C253.2 31.8 237.6 59.6 222.8 87.8C167.1 194 111.6 300.3 56.3001 406.7C52.5001 413.9 47.7999 423.2 49.3999 430.1C51.3999 438.5 58.2 447.5 65.5 452.4C75.2 459 86.0001 454.7 95.1001 447.4C130.6 419 167.7 393.3 210.6 377.1C259.2 358.8 308.7 356.3 359.3 366.3C373.1 369 383.5 374.5 388.4 388.6C390.8 395.4 395 401.6 400 411.1L400.2 411.2Z" fill="#2765FF"/>
</svg>
